<?xml version="1.0" encoding="utf-8"?>
<!-- Generator: Adobe Illustrator 28.2.0, SVG Export Plug-In . SVG Version: 6.00 Build 0)  -->
<svg version="1.1" id="Layer_1" xmlns="http://www.w3.org/2000/svg" xmlns:xlink="http://www.w3.org/1999/xlink" x="0px" y="0px"
	 viewBox="0 0 2813.6 554.5" style="enable-background:new 0 0 2813.6 554.5;" xml:space="preserve">
<style type="text/css">
	.st0{fill:#FFFFFF;}
</style>
<g id="Vrstva_2">
	<g id="Vrstva_1-2">
		<rect x="1720.2" y="123.6" class="st0" width="94.1" height="314"/>
		<polygon class="st0" points="1485.5,437.6 1695,437.6 1695,370.1 1580.2,370.1 1580.2,123.6 1485.5,123.6 		"/>
		<path class="st0" d="M1448.6,438.9v-67.5c-47.1-2.1-65.7-5.7-100-40.5c-20.7-21-33.4-46.5-33.5-75.3
			c-0.1-49.8,35.7-64.5,84.2-64.4h49.3v-67.5h-70.2c-36.2,0-73,3.7-103,22.2c-36.9,22.7-55,60.9-54.9,104.5
			c0,50.8,22.7,99.2,59.5,133.8c24.7,23.1,60,41.4,93.1,48.5C1393.3,437,1425.4,438.4,1448.6,438.9"/>
		<path class="st0" d="M2599.9,87.9V20.7l-103.4,102.8l103.4,101.3v-66.2c75.1,4.6,138.3,75.4,138.3,155.7
			c0,84.9-67.7,167.1-172.6,167.1H448c-51.2-55.3-75-86.2-117.1-148c-9.8-14.4-21.1-31.2-33.7-50.5c23.8-13.7,52.1-28.9,69.4-43.9
			c7.3-6.4,14.2-13.3,20.6-20.6c13.1-14.4,22.8-32.4,29.1-48.2c16.1-40.4,11.8-83.9-14.6-118.5c-15.6-20.4-37-32.1-61.7-39.9
			c-29.8-9.5-49.5-12-84-12H0v481.3h127.5V102.1h92.4c10.4,0,23.9-0.1,31.2,1.9c13.7,3.8,26.3,17.6,26.3,31.3
			c0,16.9-14,37.2-27.1,49.9c-14.5,14.1-23.5,22-40.2,34.1c-19.9,14.3-40.9,27.1-64.8,41.3c28.7,55.2,63.4,108.7,97.7,156.9
			c19.9,27.9,43.2,56.3,67.7,83.4c14.4,15.8,52.7,53.6,52.7,53.6h2202.7c157.9,0,247.5-117.8,247.5-239.6
			C2813.6,191.5,2719.2,87.9,2599.9,87.9z"/>
		<polygon class="st0" points="1866.3,436.9 1866.3,123.6 1958.3,123.6 2068.7,252.9 2068.7,123.6 2163.4,123.6 2163.4,437.6 
			2068.2,437.6 2068.2,368.8 1960.4,245.2 1959.9,436.9 		"/>
		<path class="st0" d="M1046.3,438.4V311.7l-67.4-120.6h-59.7c-48.5-0.1-84.3,14.6-84.2,64.4c0.1,28.8,12.8,54.4,33.5,75.3
			c34.3,34.8,62.7,38.4,109.8,40.5v67.5c-23.3-0.5-65.2-1.9-85.3-6.2c-33.1-7.1-68.4-25.4-93.1-48.5
			c-36.9-34.6-59.5-83.1-59.5-133.8c0-43.6,18-81.8,54.9-104.5c30.1-18.5,66.8-22.2,103-22.2h147l61,113.6l58.7-113.5h82.7
			l-106.2,187.3v127.5H1046.3z"/>
		<polygon class="st0" points="475.8,437.6 717.6,437.6 717.6,370.1 570.4,370.1 570.4,310.9 695.2,310.9 695.2,242.1 570.4,242.1 
			570.4,191.1 708,191.1 708,123.6 475.8,123.6 		"/>
		<path class="st0" d="M2508,437.6V240.2h-132.8v67.1h38.2v61c-10.1,0-13.4,0.2-24.8-2.4c-17.3-3.9-40.1-13.2-54.2-23.7
			c-26.4-19.8-45.5-56.2-45.5-89.3c0-20.8,6.1-37.3,23-48.8c14.5-9.8,27.3-11.7,45.8-12.6c7.7-0.4,17-0.5,28-0.5h119.1l-68.9-67.5
			h-84.7c-28.8,0-59.6,0.8-84.5,11.4c-25.8,11-47.6,29.8-60,53.8c-17.3,33.3-16.8,75.7-4.8,112.1c11.8,35.8,33.6,65.7,63.6,89.2
			c35.9,28.3,70.9,40.1,117,44.9c18.3,1.8,36.7,2.6,55.1,2.5L2508,437.6z"/>
	</g>
</g>
</svg>
