<?xml version="1.0" encoding="utf-8"?>
<!-- Generator: Adobe Illustrator 28.2.0, SVG Export Plug-In . SVG Version: 6.00 Build 0)  -->
<svg version="1.1" id="Vrstva_1" xmlns="http://www.w3.org/2000/svg" xmlns:xlink="http://www.w3.org/1999/xlink" x="0px" y="0px"
	 viewBox="0 0 367.1 242.3" style="enable-background:new 0 0 367.1 242.3;" xml:space="preserve">
<style type="text/css">
	.st0{fill-rule:evenodd;clip-rule:evenodd;fill:#FFCB05;}
	.st1{fill-rule:evenodd;clip-rule:evenodd;fill:#A6CE39;}
	.st2{fill-rule:evenodd;clip-rule:evenodd;fill:#F58220;}
</style>
<g>
	<path class="st0" d="M198.1,239.8c-41.3-32-86.5-103.1-66.9-158c6.7-18.9,21.9-33.5,48.4-38.9c-36.5,19-40.8,57.2-30.2,81.1
		c6.7,15.1,20,18.6,30.4,15c17.7-6.1,48.1-73.7,103.4-81.8c47.3-6.9,74.5,25.7,71.2,72.6c-9.9-46.6-35.9-67.5-76.3-50.5
		C230.6,99.3,187.9,162.8,198.1,239.8z"/>
	<path class="st1" d="M203.6,240.7c58.7,2,148.6-19.7,162.1-87.7c3.5-17.6,0.8-35.7-10.1-50.5c13,33.8-8.4,72.9-41,86.5
		c-9.1,3.8-16.2,2.7-21.5,0.1c-6-3-10.3-9.1-11.4-17.7c-0.6-4.3,0.2-9.2,0.7-14.8c2.2-21.5,2.1-43.4-2.5-67.8
		c-12.4-65.5-84.9-88.6-134.5-38.5c55.2-29.9,102.3-13.3,114,48C268,143.7,254.3,204.5,203.6,240.7z"/>
	<path class="st1" d="M308.3,155.2c-8.2-3.1-17.3,1.1-20.3,9.2c-3.1,8.2,1.1,17.3,9.2,20.3c8.2,3.1,17.3-1.1,20.3-9.2
		C320.6,167.4,316.5,158.3,308.3,155.2z"/>
	<path class="st2" d="M190.2,241.6c-89.6,7.3-229.1-41.8-180-151.6c-8.2,40.3,6.9,82.1,48.7,98.9c18.1,7.3,30.8,2.1,36.1-8.2
		c8.9-17.4-5.6-48.6-1-87C100.2,42.3,139.7-4,197.9,0.3c23.1,1.7,44.8,12.4,58,33.2c-12.7-10.5-28.9-16.5-45.6-18
		C83.7,3.5,97.8,179.6,190.2,241.6z"/>
	<path class="st2" d="M69.3,154.6c8.5-3.4,18.1,0.8,21.5,9.3c3.4,8.5-0.8,18.1-9.3,21.5c-8.5,3.4-18.1-0.8-21.5-9.3
		C56.6,167.6,60.8,158,69.3,154.6z"/>
	<path class="st0" d="M177.5,105.5c-8.1-3-17.1,1.1-20.1,9.1c-3,8.1,1.1,17.1,9.1,20.1c8.1,3,17.1-1.1,20.1-9.1
		C189.7,117.5,185.6,108.5,177.5,105.5z"/>
</g>
</svg>
