<?xml version="1.0" encoding="utf-8"?>
<!-- Generator: Adobe Illustrator 28.2.0, SVG Export Plug-In . SVG Version: 6.00 Build 0)  -->
<svg version="1.1" id="Layer_1" xmlns="http://www.w3.org/2000/svg" xmlns:xlink="http://www.w3.org/1999/xlink" x="0px" y="0px"
	 viewBox="0 0 1906.9 130" style="enable-background:new 0 0 1906.9 130;" xml:space="preserve">
<style type="text/css">
	.st0{clip-path:url(#SVGID_00000155861558007757277610000010786678849022600370_);}
	.st1{fill-rule:evenodd;clip-rule:evenodd;fill:#111827;}
</style>
<g>
	<defs>
		<rect id="SVGID_1_" width="1906.9" height="130"/>
	</defs>
	<clipPath id="SVGID_00000029005526084603710770000015864928547257111174_">
		<use xlink:href="#SVGID_1_"  style="overflow:visible;"/>
	</clipPath>
	<g style="clip-path:url(#SVGID_00000029005526084603710770000015864928547257111174_);">
		<path class="st1" d="M1926.4,130H953.6c11.7-23.3,32.7-40.1,57.6-43.8c19.1-2.7,38.5,2.3,54.3,14.1c24.2-40.2,66.4-63.5,110-60.8
			c38.7,2.5,73.5,25,94.5,59.3c14.7-13.6,33.2-21.8,52.6-23.3s38.8,3.8,55.2,15.1c20.4-36.6,56.5-60.8,96.9-63
			c43.6-2.3,85.5,21.7,108.6,62.5c16-22.4,40-37.1,66.6-38.4c18.2-0.8,36.1,4.5,51.3,15.2c25.4-41.2,67.8-66,111-62.9
			C1868.8,8.1,1919.3,59.9,1926.4,130z"/>
		<path class="st1" d="M-19.4,130h973C942,106.7,921,88.7,896.2,85c-19.1-2.8-38.5,2.2-54.4,13.9C817.7,58.5,775.6,35.1,732,37.7
			c-38.7,2.3-73.6,24.8-94.7,59c-14.7-13.7-33.1-21.9-52.5-23.5c-19.4-1.5-38.8,3.7-55.2,14.9c-20.2-36.7-56.3-61-96.7-63.3
			c-43.6-2.5-85.6,21.4-108.8,62.2c-15.9-22.4-39.9-37.2-66.5-38.6c-18.2-0.8-36.1,4.4-51.4,15C181,22.2,138.6-2.8,95.4,0.2
			C38.2,4.1-12.8,56.8-19.4,127.8V130z"/>
	</g>
</g>
</svg>
